<?xml version="1.0" standalone="no"?>
<!DOCTYPE svg PUBLIC "-//W3C//DTD SVG 20010904//EN"
 "http://www.w3.org/TR/2001/REC-SVG-20010904/DTD/svg10.dtd">
<svg version="1.0" xmlns="http://www.w3.org/2000/svg"
 width="1176.000000pt" height="1175.000000pt" viewBox="0 0 1176.000000 1175.000000"
 preserveAspectRatio="xMidYMid meet">

<g transform="translate(0.000000,1175.000000) scale(0.100000,-0.100000)"
fill="#000000" stroke="none">
<path d="M2933 8233 l-501 -3 -21 -33 c-33 -53 -833 -2436 -1084 -3227 -92
-289 -233 -763 -312 -1045 -36 -132 -70 -252 -75 -267 -7 -22 -2 -35 33 -82
l41 -56 270 6 c149 3 519 9 821 14 583 8 626 12 668 58 10 11 49 152 95 343
l79 324 534 3 c378 1 542 -1 561 -9 71 -29 157 -168 203 -325 19 -66 25 -109
25 -186 0 -55 5 -108 10 -119 14 -26 72 -54 145 -70 64 -15 284 -15 1237 -1
463 7 477 8 505 28 59 44 103 -106 -652 2281 -384 1214 -704 2231 -712 2258
-8 31 -23 58 -40 72 -57 46 -15 45 -1830 36z m859 -1894 c108 -485 194 -888
191 -895 -23 -60 -308 -104 -673 -104 l-175 0 -42 73 -41 72 138 600 c77 330
158 656 180 725 67 202 177 410 217 410 4 0 97 -397 205 -881z"/>
<path d="M6495 8215 c-5 -2 -27 -6 -49 -10 -21 -3 -49 -17 -62 -30 l-24 -24 0
-2286 0 -2286 43 -19 c41 -18 80 -19 822 -20 789 -2 882 2 962 35 80 34 73
-42 73 803 l0 755 138 -6 c161 -6 223 -23 286 -78 75 -66 92 -128 131 -479 61
-550 129 -881 195 -962 l29 -35 313 -7 c172 -3 441 -14 598 -22 438 -25 710
-11 808 40 45 24 72 55 72 84 0 15 -25 78 -55 141 l-55 113 0 123 c0 108 -27
435 -61 750 -17 161 -57 362 -95 475 -76 230 -175 385 -319 500 -70 55 -219
138 -275 153 -22 6 -15 12 70 60 342 190 524 409 612 735 30 112 37 392 13
534 -41 250 -138 442 -303 600 -213 203 -515 321 -912 357 -104 10 -2928 15
-2955 6z m2050 -1015 c66 -6 145 -15 175 -21 86 -17 197 -75 255 -133 69 -69
89 -128 88 -256 -1 -165 -49 -293 -147 -391 -91 -91 -273 -162 -453 -176 -98
-7 -107 -2 -146 85 -49 109 -70 260 -71 517 -1 261 5 312 40 355 30 35 53 37
259 20z"/>
</g>
</svg>
